<?xml version="1.0" encoding="utf-8"?>
<!-- Generator: Adobe Illustrator 25.4.1, SVG Export Plug-In . SVG Version: 6.00 Build 0)  -->
<svg version="1.1" id="Layer_1" xmlns="http://www.w3.org/2000/svg" xmlns:xlink="http://www.w3.org/1999/xlink" x="0px" y="0px"
	 viewBox="0 0 1417.3 340.2" style="enable-background:new 0 0 1417.3 340.2;" xml:space="preserve">
<style type="text/css">
	.st0{clip-path:url(#SVGID_00000033344243852981519590000010477833359560389535_);}
	.st1{clip-path:url(#SVGID_00000159430702240105251830000015936757674006359427_);}
	.st2{fill:url(#SVGID_00000174593217800408731680000003709626889718239642_);}
	.st3{clip-path:url(#SVGID_00000085252463995888182700000016544410817794380972_);}
	.st4{fill:url(#SVGID_00000052103879798797584600000002070381114805596547_);}
	.st5{clip-path:url(#SVGID_00000017493957819608685450000006655085451403661233_);}
	.st6{clip-path:url(#SVGID_00000126284751128766263620000003369402758686634408_);}
	.st7{fill:url(#SVGID_00000132088304133473712490000007393968659436763269_);}
	.st8{fill:none;}
	.st9{font-family:'Constantia';}
	.st10{font-size:37.69px;}
	.st11{enable-background:new    ;}
</style>
<g>
	<defs>
		<rect id="SVGID_1_" y="0" width="1417.3" height="340.2"/>
	</defs>
	<clipPath id="SVGID_00000135681648847182394580000017019165888114976178_">
		<use xlink:href="#SVGID_1_"  style="overflow:visible;"/>
	</clipPath>
	<g style="clip-path:url(#SVGID_00000135681648847182394580000017019165888114976178_);">
		<path d="M24.5,158.6c0,0,44.8-70.8,141.6-18.8l-12,41.6C154.2,181.4,87.4,137.4,24.5,158.6"/>
		<path d="M198.2,206.2l15.2-40.4l65.2,29.6c17.1,7.8,34.3,15.7,53.3,17.3c21.6,1.8,43.1-3.6,60.8-16.3c5.9-4.2,16.1-11,19.1-17.8
			c0,0-44,96.8-123.2,64.4L198.2,206.2z"/>
	</g>
</g>
<g>
	<defs>
		<path id="SVGID_00000171716914883731447990000006862453981996746114_" d="M274.2,50.3c-4.5,0-9,0.3-13.5,0.8
			c-7.9,1-15.7,3-23.1,5.9c-16.1,6.5-29.7,18-39.7,32.1c-10.7,15.2-15.6,33.5-21.4,50.9c-6.6,19.7-13,39.5-19.8,59.1
			c-18.8,71.6-54.4,90.8-54.4,90.8c15.2-0.7,29.3-7.1,41.2-16.3c34.4-26.8,47.3-68.6,61.5-107.9c7.8-21.6,14-45.1,25.3-65.2
			c12-21.4,33.3-43.2,58.1-49.4c-2.3,0.6-5.5,0.2-8.5-0.2C277.9,50.5,276.1,50.4,274.2,50.3L274.2,50.3"/>
	</defs>
	<clipPath id="SVGID_00000069356971284452116050000012459689872748376714_">
		<use xlink:href="#SVGID_00000171716914883731447990000006862453981996746114_"  style="overflow:visible;"/>
	</clipPath>
	<g style="clip-path:url(#SVGID_00000069356971284452116050000012459689872748376714_);">
		
			<linearGradient id="SVGID_00000084510437132344182770000000815397313069942463_" gradientUnits="userSpaceOnUse" x1="408.7907" y1="252.0741" x2="409.7907" y2="252.0741" gradientTransform="matrix(186.03 0 0 186.03 -75945.0859 -46723.2734)">
			<stop  offset="0" style="stop-color:#52C3CC"/>
			<stop  offset="0.22" style="stop-color:#4FC1CE"/>
			<stop  offset="0.36" style="stop-color:#47B9D3"/>
			<stop  offset="0.48" style="stop-color:#38ACDC"/>
			<stop  offset="0.5" style="stop-color:#34A8DF"/>
			<stop  offset="0.57" style="stop-color:#409CD6"/>
			<stop  offset="0.7" style="stop-color:#528AC7"/>
			<stop  offset="0.84" style="stop-color:#5D80BF"/>
			<stop  offset="1" style="stop-color:#617CBC"/>
		</linearGradient>
		
			<rect x="102.2" y="50.3" style="fill:url(#SVGID_00000084510437132344182770000000815397313069942463_);" width="186" height="239.6"/>
	</g>
</g>
<g>
	<defs>
		<path id="SVGID_00000111873207260476771140000011592798764734338461_" d="M81.1,215.1c0,15.6,10.5,28.2,23.5,28.2
			s23.5-12.6,23.5-28.2s-10.5-28.2-23.5-28.2S81.1,199.5,81.1,215.1"/>
	</defs>
	<clipPath id="SVGID_00000096036575867153003950000018387848242148025757_">
		<use xlink:href="#SVGID_00000111873207260476771140000011592798764734338461_"  style="overflow:visible;"/>
	</clipPath>
	<g style="clip-path:url(#SVGID_00000096036575867153003950000018387848242148025757_);">
		
			<linearGradient id="SVGID_00000066488075788961736330000013472694307713516970_" gradientUnits="userSpaceOnUse" x1="405.6618" y1="241.9764" x2="406.6618" y2="241.9764" gradientTransform="matrix(0 -47.02 47.02 0 -11273.1709 19311.6797)">
			<stop  offset="0" style="stop-color:#52C3CC"/>
			<stop  offset="0.23" style="stop-color:#4FC1CE"/>
			<stop  offset="0.39" style="stop-color:#47B9D3"/>
			<stop  offset="0.51" style="stop-color:#38ACDC"/>
			<stop  offset="0.54" style="stop-color:#34A8DF"/>
			<stop  offset="1" style="stop-color:#617CBC"/>
		</linearGradient>
		
			<rect x="81.1" y="186.9" style="fill:url(#SVGID_00000066488075788961736330000013472694307713516970_);" width="47" height="56.4"/>
	</g>
</g>
<g>
	<defs>
		<rect id="SVGID_00000045583962787805798690000015437761180861396119_" y="0" width="1417.3" height="340.2"/>
	</defs>
	<clipPath id="SVGID_00000078750530402914627840000010897078714038566047_">
		<use xlink:href="#SVGID_00000045583962787805798690000015437761180861396119_"  style="overflow:visible;"/>
	</clipPath>
	<g style="clip-path:url(#SVGID_00000078750530402914627840000010897078714038566047_);">
		<path d="M316.4,132.8c0,18.8-12.7,34.1-28.4,34.1s-28.4-15.3-28.4-34.1s12.7-34.1,28.4-34.1S316.4,114,316.4,132.8"/>
		<path d="M807.5,210.8c-12.2,0-21.9-3.9-29.1-11.8s-10.7-18.5-10.8-31.9c0-13.7,3.7-24.6,11.2-32.6s17.5-12.1,30.2-12.1
			c10.2,0,18.7,2.6,25.2,7.6c6.5,5,10.7,12.5,11.5,20.6h-17.6c-0.5-3.6-2.5-6.8-6.2-9.6c-3.5-2.7-7.7-4.1-12.1-4.1
			c-7.6,0-13.6,2.6-17.9,7.9s-6.5,12.6-6.5,21.9c0,9.5,2.1,16.8,6.2,21.7c4.1,5,10.2,7.5,18.1,7.5l0,0c6.8,0,12.1-2.6,15.9-7.7
			c2.2-3.1,3.8-6.6,4.6-10.3v-0.2h-19.8v-14.5h35.2v45.3h-11.7l-1.7-10.9l-1,1.4C825.6,206.9,817.6,210.8,807.5,210.8L807.5,210.8z"
			/>
		<polygon points="862.4,208.5 862.4,124.6 924.2,124.6 924.2,132 924.2,139.5 880,139.5 880,157.4 921,157.4 921,164.5 921,171.8 
			880,171.8 880,193.6 926.1,193.6 926.1,201.1 926.1,208.5 		"/>
		<polygon points="955.9,208.5 947.7,208.5 939.5,208.5 939.5,124.6 948.7,124.6 957.9,124.6 991.6,183.5 991.6,124.6 999.7,124.6 
			1008,124.6 1008,208.5 999.2,208.5 990.5,208.5 955.9,148.1 		"/>
		<polygon points="1040.3,208.5 1032.1,208.5 1024,208.5 1024,124.6 1033.2,124.6 1042.3,124.6 1076,183.5 1076,124.6 1084.2,124.6 
			1092.4,124.6 1092.4,208.5 1083.7,208.5 1075,208.5 1040.3,148.1 		"/>
		<path d="M1140.9,208.5v-83.9h35.1c9.6,0,16.8,2.2,21.8,6.7c5,4.5,7.5,11,7.5,19.5c0,9.1-2.5,15.9-7.5,20.6s-12.3,7.1-21.8,7.1
			c-6.8,0-12.6,0-17.6,0.1v29.9L1140.9,208.5L1140.9,208.5z M1158.5,164.1h14.6c4.9,0,8.6-1.1,11-3.3c2.4-2.2,3.6-5.4,3.7-9.8
			c0-4-1.2-7-3.7-9s-6.1-3-11-3h-14.6V164.1z"/>
		<path d="M1255.4,210.8c-12.3,0-22.1-3.9-29.4-11.8c-7.3-7.9-10.9-18.5-10.9-31.9c0-13.7,3.6-24.6,10.9-32.6
			c7.3-8.1,17.1-12.1,29.4-12.1c12.4,0,22.3,4,29.5,12.1s10.9,18.9,10.9,32.6c0,13.4-3.6,24-10.9,31.9S1267.9,210.8,1255.4,210.8
			 M1255.4,195.9c7.2,0,12.8-2.6,16.8-7.7s6-12.2,6-21.3c0-9.3-2-16.6-6-21.8s-9.6-7.8-16.8-7.9c-7.1,0-12.7,2.6-16.7,7.9
			s-6.1,12.5-6.1,21.8c0,9.1,2,16.2,6,21.3C1242.7,193.4,1248.3,195.9,1255.4,195.9"/>
		<path d="M1355.4,149.8c-0.2-3.8-2.2-7.3-5.3-9.5c-3.2-2.3-7.3-3.5-12.5-3.5c-4.5,0-8,1-10.5,2.9c-2.5,2-3.9,5-3.7,8.2
			c0,2.5,1.3,4.5,3.9,5.8s8.1,3,16.5,4.9c12.2,2.7,20.4,5.9,24.5,9.4c4.1,3.6,6.2,9.3,6.2,17.1c0.2,7.4-3.3,14.4-9.3,18.7
			c-6.2,4.6-14.6,7-25.2,7c-10.6,0-18.9-2.4-24.9-7.4c-6-4.9-9.2-11.9-9.6-20.9h16.9c0.2,4.4,1.8,7.9,4.9,10.2s7.3,3.6,12.8,3.6
			s9.9-0.9,13.1-2.7s4.7-4.3,4.7-7.5c0.2-2.8-1.1-5.4-3.4-7c-2.2-1.5-6.9-3-14.2-4.6c-13.3-3-22.2-6.2-26.7-9.7
			c-4.5-3.5-6.7-8.8-6.7-16c0-8.2,2.9-14.6,8.8-19.4c5.9-4.8,13.9-7.2,23.9-7.2c9.4,0,17,2.5,22.9,7.4c5.9,4.9,9.2,11.6,9.9,20.1
			L1355.4,149.8z"/>
	</g>
</g>
<g>
	<defs>
		<polygon id="SVGID_00000118379361182654658040000001765319482304649620_" points="647.8,167.2 621,206.9 642.3,206.8 668.8,166.7 
			642.2,127.3 620.5,127.2 		"/>
	</defs>
	<clipPath id="SVGID_00000160192221343021736700000008776911755728455321_">
		<use xlink:href="#SVGID_00000118379361182654658040000001765319482304649620_"  style="overflow:visible;"/>
	</clipPath>
	<g style="clip-path:url(#SVGID_00000160192221343021736700000008776911755728455321_);">
		
			<linearGradient id="SVGID_00000147941938113007453840000001617532495881478833_" gradientUnits="userSpaceOnUse" x1="402.496" y1="255.9145" x2="403.496" y2="255.9145" gradientTransform="matrix(48.33 0 0 48.33 -18832.1113 -12201.2969)">
			<stop  offset="0" style="stop-color:#52C3CC"/>
			<stop  offset="0.22" style="stop-color:#4FC1CE"/>
			<stop  offset="0.36" style="stop-color:#47B9D3"/>
			<stop  offset="0.48" style="stop-color:#38ACDC"/>
			<stop  offset="0.5" style="stop-color:#34A8DF"/>
			<stop  offset="0.57" style="stop-color:#409CD6"/>
			<stop  offset="0.7" style="stop-color:#528AC7"/>
			<stop  offset="0.84" style="stop-color:#5D80BF"/>
			<stop  offset="1" style="stop-color:#617CBC"/>
		</linearGradient>
		
			<rect x="620.5" y="127.2" style="fill:url(#SVGID_00000147941938113007453840000001617532495881478833_);" width="48.3" height="79.7"/>
	</g>
</g>
<polygon points="649.9,127.2 671.6,127.3 698.2,166.7 671.7,206.8 650.4,206.9 677.2,167.2 "/>
<polygon points="690.6,147.1 706.9,123.3 728.9,123.3 701.6,163.1 "/>
<polygon points="703.5,166.9 730.2,206.8 709.6,206.8 693,182.3 "/>
<polygon points="545.8,206.4 545.8,122.4 607.6,122.4 607.6,129.9 607.6,137.3 563.4,137.3 563.4,155.2 604.4,155.2 604.4,162.3 
	604.4,169.6 563.4,169.6 563.4,191.4 609.6,191.4 609.6,198.9 609.6,206.4 "/>
<polygon points="477.2,207.5 469,207.5 460.8,207.5 460.8,123.6 470,123.6 479.2,123.6 512.9,182.4 512.9,123.6 521,123.6 
	529.3,123.6 529.3,207.5 520.5,207.5 511.8,207.5 477.2,147 "/>
<rect y="0" class="st8" width="1417.3" height="340.2"/>
<path d="M1348.1,89.5c1.8-0.3,3.6-0.5,5.4-0.5c2.3-0.2,4.5,0.4,6.3,1.8c1.1,1.1,1.8,2.6,1.7,4.2c0,2.6-1.6,4.8-4.1,5.6l0,0
	c1.7,0.8,3,2.5,3.2,4.4c0.4,2,0.9,4.1,1.7,6h-2.9c-0.7-1.7-1.1-3.4-1.4-5.2c-0.6-3-1.8-4.1-4.4-4.3h-2.7v9.5h-2.8L1348.1,89.5z
	 M1351,99.5h2.9c3,0,5-1.6,5-4.1s-2.1-4.1-5-4.1c-0.9,0-1.9,0.1-2.8,0.2L1351,99.5z"/>
<path d="M1355.3,118.6c-10.2,0-18.5-8.3-18.5-18.5c0-10.2,8.3-18.5,18.5-18.5c10.2,0,18.5,8.3,18.5,18.5c0,0,0,0,0,0
	C1373.7,110.3,1365.5,118.6,1355.3,118.6z M1355.3,83.2c-9.3,0-16.9,7.5-16.9,16.9c0,9.3,7.5,16.9,16.9,16.9
	c9.3,0,16.9-7.5,16.9-16.9c0,0,0,0,0,0C1372.1,90.8,1364.6,83.2,1355.3,83.2z"/>
<text transform="matrix(1 0 0 1 861.6 253.92)" class="st9 st10">E</text>
<text transform="matrix(1 0 0 1 885.37 253.92)" class="st9 st10">x</text>
<g class="st11">
	<path d="M905.8,238.4l-0.1-0.6c2.1-0.4,4-0.8,5.9-1.3l0.2,0.1v1.8c1.9-1.3,3.7-1.9,5.5-1.9c2.3,0,4.1,0.8,5.5,2.3
		c1.4,1.5,2,3.5,2,6c0,3-0.9,5.4-2.6,7.1c-1.7,1.7-4.2,2.6-7.4,2.6c-1,0-1.9-0.1-3-0.3v4c0,1.2,0,2.1,0,2.6c0,0.4,0.2,0.6,0.5,0.7
		l2.4,0.7l0.1,0.8c-1.9,0-3.5-0.1-4.7-0.1c-1.2,0-2.6,0-4.3,0.1l-0.1-0.8l2.1-0.6c0.3-0.1,0.4-0.3,0.5-0.6c0-0.9,0-2.3,0-4.1v-7.5
		c0-5.4,0-8.9-0.1-10.3L905.8,238.4z M911.7,252.5c1.1,0.2,2.1,0.3,3.1,0.3c2,0,3.6-0.6,4.6-1.9c1-1.3,1.5-3.1,1.5-5.5
		c0-2.2-0.5-3.9-1.5-5.1s-2.4-1.7-4.2-1.7c-1.3,0-2.5,0.3-3.5,0.8V252.5z"/>
	<path d="M929,228.1l-0.1-0.6c2.2-0.4,4.2-0.9,6-1.3l0.2,0.1c-0.1,2-0.1,4.8-0.1,8.3v12c0,2.2,0,4,0,5.3c0,0.4,0.2,0.6,0.5,0.7
		l2,0.6l0.1,0.8c-1.7,0-3.1-0.1-4.3-0.1c-1.2,0-2.6,0-4.3,0.1l-0.1-0.8l2.1-0.6c0.3-0.1,0.5-0.3,0.5-0.6c0-1.4,0-2.9,0-4.6v-7.6
		c0-4.6,0-8.2-0.1-11L929,228.1z"/>
	<path d="M959.3,245.1c0,2.8-0.8,5.1-2.5,6.8c-1.7,1.7-3.8,2.6-6.4,2.6c-2.5,0-4.6-0.8-6.2-2.4c-1.6-1.6-2.3-3.8-2.3-6.4
		c0-2.7,0.8-4.9,2.5-6.6c1.6-1.7,3.8-2.6,6.5-2.6c2.6,0,4.6,0.8,6.2,2.4S959.3,242.5,959.3,245.1z M945.6,245.2
		c0,2.3,0.4,4.2,1.3,5.6c0.9,1.4,2.1,2.2,3.8,2.2c1.6,0,2.8-0.6,3.6-1.9c0.8-1.3,1.2-3.1,1.2-5.6c0-2.3-0.4-4.2-1.3-5.5
		c-0.9-1.3-2.1-2-3.8-2c-1.6,0-2.8,0.6-3.6,1.8C946.1,240.9,945.6,242.8,945.6,245.2z"/>
</g>
<text transform="matrix(1 0 0 1 962.6899 253.92)" class="st9 st10">r</text>
<text transform="matrix(1 0 0 1 978.47 253.92)" class="st9 st10">e</text>
<text transform="matrix(1 0 0 1 997.48 253.92)" class="st9 st10"> </text>
<text transform="matrix(1 0 0 1 1008.46 253.92)" class="st9 st10">th</text>
<text transform="matrix(1 0 0 1 1047.38 253.92)" class="st9 st10">e</text>
<text transform="matrix(1 0 0 1 1066.4 253.92)" class="st9 st10"> </text>
<text transform="matrix(1 0 0 1 1077.74 253.92)" class="st9 st10">N</text>
<text transform="matrix(1 0 0 1 1107.2999 253.92)" class="st9 st10">ex</text>
<text transform="matrix(1 0 0 1 1147.23 253.92)" class="st9 st10">t</text>
<g class="st11">
	<path d="M1194.7,234.6l-0.7,0.1l-1.3-4.8c-1.5-0.4-2.9-0.6-4.2-0.6c-3.1,0-5.5,1-7.2,3.1c-1.7,2.1-2.6,4.9-2.6,8.6
		c0,3.7,0.9,6.6,2.8,8.8s4.4,3.3,7.6,3.3c1.1,0,2.1-0.1,3.1-0.4v-4.9c0-0.6,0-1.2,0-1.7c0-0.5,0-1,0-1.4c0-0.3-0.2-0.5-0.4-0.6
		l-2.3-0.7l0-0.8c1.6,0,3.1,0.1,4.6,0.1c1.5,0,2.9,0,4.3-0.1l0.1,0.8l-2,0.6c-0.3,0.1-0.5,0.3-0.5,0.6c0,0.5,0,1,0,1.5s0,1.1,0,1.6
		v5.9l-0.1,0.1c-2.5,0.6-4.8,0.9-6.9,0.9c-4.3,0-7.7-1.1-10.3-3.4s-3.8-5.5-3.8-9.6c0-4.3,1.3-7.7,4-10.2s6.3-3.7,10.8-3.7
		c2,0,4,0.3,6.2,0.8l0.1,0.1L1194.7,234.6z"/>
	<path d="M1217.9,252.6c-1,0.7-2.1,1.1-3.2,1.4c-1.1,0.3-2.1,0.4-3.1,0.4c-2.7,0-4.9-0.8-6.5-2.3c-1.7-1.5-2.5-3.7-2.5-6.4
		c0-2.7,0.8-5,2.3-6.7c1.6-1.7,3.6-2.6,6.2-2.6c2.2,0,3.9,0.6,5.1,1.9c1.2,1.3,1.8,3.1,1.8,5.4c0,0.3,0,0.7-0.1,1h-11.6
		c0,2.6,0.6,4.5,1.9,5.7s3.2,1.7,5.8,1.7c1.2,0,2.4-0.1,3.8-0.3L1217.9,252.6z M1214.2,243.3v-0.6c0-1.7-0.3-3-0.8-3.7
		s-1.4-1.1-2.4-1.1c-1.4,0-2.5,0.5-3.3,1.6c-0.8,1.1-1.2,2.3-1.3,3.8H1214.2z"/>
	<path d="M1222.1,237.7c2.1-0.4,4-0.8,5.8-1.3l0.2,0.1v2.1c2.1-1.5,4.1-2.3,6-2.3c1.7,0,3.1,0.5,4.1,1.5c1,1,1.5,2.4,1.5,4.2v6.5
		c0,1.5,0,2.7,0,3.4c0,0.3,0.2,0.5,0.5,0.6l2,0.6l0,0.8c-1.6,0-3-0.1-4.2-0.1c-1.2,0-2.5,0-4,0.1l-0.1-0.8l1.8-0.5
		c0.3-0.1,0.4-0.3,0.5-0.6c0-0.2,0-0.6,0-1.2v-8c0-1.5-0.4-2.6-1.1-3.2c-0.7-0.7-1.8-1-3.2-1c-1.2,0-2.5,0.4-3.8,1.1v8
		c0,1.5,0,2.9,0,4.2c0,0.3,0.2,0.5,0.4,0.6l1.9,0.6l0,0.8c-1.5,0-2.9-0.1-4.1-0.1s-2.6,0-4.3,0.1l-0.1-0.8l2.2-0.6
		c0.3-0.1,0.4-0.3,0.4-0.6c0-0.8,0-1.5,0-2.3v-6.3c0-1.6,0-3.1-0.1-4.5l-2.4-0.7L1222.1,237.7z"/>
	<path d="M1261.7,252.6c-1,0.7-2.1,1.1-3.2,1.4c-1.1,0.3-2.1,0.4-3.1,0.4c-2.7,0-4.9-0.8-6.5-2.3c-1.7-1.5-2.5-3.7-2.5-6.4
		c0-2.7,0.8-5,2.3-6.7c1.6-1.7,3.6-2.6,6.2-2.6c2.2,0,3.9,0.6,5.1,1.9c1.2,1.3,1.8,3.1,1.8,5.4c0,0.3,0,0.7-0.1,1h-11.6
		c0,2.6,0.6,4.5,1.9,5.7c1.2,1.1,3.2,1.7,5.8,1.7c1.2,0,2.4-0.1,3.8-0.3L1261.7,252.6z M1258,243.3v-0.6c0-1.7-0.3-3-0.8-3.7
		s-1.4-1.1-2.4-1.1c-1.4,0-2.5,0.5-3.3,1.6c-0.8,1.1-1.2,2.3-1.3,3.8H1258z"/>
</g>
<text transform="matrix(1 0 0 1 1264.84 253.92)" class="st9 st10">r</text>
<g class="st11">
	<path d="M1282.9,238c2.4-1,4.5-1.6,6.3-1.6c1.9,0,3.4,0.5,4.5,1.5s1.6,2.4,1.6,4.3l-0.1,7.7c0,0.6,0,1.1,0,1.5s0.2,0.7,0.3,0.9
		c0.2,0.2,0.4,0.3,0.8,0.4c0.4,0.1,0.8,0.1,1.4,0.1l0.1,0.7c-0.5,0.2-1.2,0.4-1.9,0.6c-0.8,0.2-1.3,0.3-1.6,0.3
		c-1.2,0-2-0.6-2.5-1.8c-1.7,1.2-3.4,1.9-4.9,1.9c-1.7,0-3.1-0.4-4.2-1.3c-1-0.8-1.6-2-1.6-3.6c0-1.9,0.8-3.3,2.5-4.2
		c1.7-0.9,4.3-1.3,7.9-1.3l0-1.4c0-1.4-0.3-2.4-1-3.1c-0.7-0.7-1.8-1-3.3-1c-1.1,0-2.5,0.2-4.2,0.6L1282.9,238z M1291.9,245.6
		c-2.6,0-4.3,0.3-5.3,0.8c-0.9,0.5-1.4,1.4-1.4,2.7c0,1.2,0.3,2,0.9,2.5c0.6,0.5,1.5,0.7,2.5,0.7c1.2,0,2.3-0.2,3.2-0.6
		L1291.9,245.6z"/>
	<path d="M1307.2,238.9c-0.1,4.1-0.1,7.5-0.1,10c0,1.3,0.2,2.2,0.6,2.6c0.4,0.5,1.1,0.7,2.2,0.7c0.8,0,2-0.1,3.3-0.3l0.1,0.8
		c-2.1,1.1-4,1.6-5.7,1.6c-1.4,0-2.4-0.4-3-1.1s-1-1.8-1-3.2c0-2.4,0-6.1,0.1-11.3l-2.5-0.6l-0.1-0.8l2.8-0.2l1.3-4.5
		c0.7-0.2,1.3-0.4,1.9-0.5l0.2,0.1c0,1.5-0.1,2.9-0.1,4.2v0.7h5.5v1.7H1307.2z"/>
	<path d="M1316.8,237.7c2.2-0.4,4.1-0.8,6-1.3l0.2,0.1c-0.1,1.6-0.1,3.3-0.1,5.3v7.1c0,1.5,0,2.5,0,3.1c0,0.3,0.2,0.5,0.5,0.6
		l2.1,0.6l0,0.8c-1.7,0-3.1-0.1-4.4-0.1c-1.2,0-2.6,0-4.3,0.1l-0.1-0.8l2.1-0.6c0.3-0.1,0.4-0.3,0.5-0.6c0-0.5,0-1.3,0-2.4v-6.1
		c0-1.6,0-3.1-0.1-4.5l-2.4-0.7L1316.8,237.7z M1323,229.9c0,0.7-0.2,1.2-0.6,1.6c-0.4,0.4-0.9,0.6-1.6,0.6c-0.6,0-1.1-0.2-1.5-0.6
		c-0.4-0.4-0.6-0.9-0.6-1.5c0-0.7,0.2-1.2,0.6-1.6s0.9-0.6,1.6-0.6c0.6,0,1.1,0.2,1.5,0.5C1322.8,228.8,1323,229.3,1323,229.9z"/>
	<path d="M1347.2,245.1c0,2.8-0.8,5.1-2.5,6.8s-3.8,2.6-6.4,2.6c-2.5,0-4.6-0.8-6.2-2.4c-1.6-1.6-2.3-3.8-2.3-6.4
		c0-2.7,0.8-4.9,2.5-6.6c1.6-1.7,3.8-2.6,6.5-2.6c2.6,0,4.6,0.8,6.2,2.4C1346.4,240.4,1347.2,242.5,1347.2,245.1z M1333.5,245.2
		c0,2.3,0.4,4.2,1.3,5.6c0.9,1.4,2.1,2.2,3.8,2.2c1.6,0,2.8-0.6,3.6-1.9c0.8-1.3,1.2-3.1,1.2-5.6c0-2.3-0.4-4.2-1.3-5.5
		s-2.1-2-3.8-2c-1.6,0-2.8,0.6-3.6,1.8C1333.9,240.9,1333.5,242.8,1333.5,245.2z"/>
</g>
<text transform="matrix(1 0 0 1 1350.5 253.92)" class="st9 st10">n</text>
</svg>
